<svg width="30" height="30" viewBox="0 0 30 30" fill="none" xmlns="http://www.w3.org/2000/svg">
<g clip-path="url(#clip0_74_616)">
<path d="M27.5096 7.92547C28.2305 7.20468 28.6356 6.22701 28.6358 5.20754C28.6359 4.18807 28.231 3.2103 27.5102 2.48933C26.7895 1.76836 25.8118 1.36326 24.7923 1.36313C23.7728 1.363 22.7951 1.76786 22.0741 2.48865L3.87501 20.6918C3.5584 21.0075 3.32426 21.3962 3.19319 21.8236L1.39183 27.7582C1.35659 27.8761 1.35392 28.0014 1.38413 28.1207C1.41433 28.24 1.47626 28.349 1.56337 28.4359C1.65047 28.5229 1.75949 28.5847 1.87886 28.6147C1.99823 28.6447 2.1235 28.6418 2.24137 28.6064L8.17728 26.8064C8.60433 26.6765 8.99297 26.4438 9.3091 26.1286L27.5096 7.92547Z" stroke="#4A403A" stroke-width="2.72727" stroke-linecap="round" stroke-linejoin="round"/>
<path d="M19.0908 5.45456L24.5454 10.9091" stroke="#4A403A" stroke-width="2.72727" stroke-linecap="round" stroke-linejoin="round"/>
</g>
<defs>
<clipPath id="clip0_74_616">
<rect width="30" height="30" fill="white"/>
</clipPath>
</defs>
</svg>
