<svg width="30" height="30" viewBox="0 0 30 30" fill="none" xmlns="http://www.w3.org/2000/svg">
<path d="M27.2735 14.9947C27.2734 14.3081 27.1011 13.6325 26.7715 13.0303C26.4418 12.4279 25.9654 11.918 25.387 11.548C24.9038 11.2388 24.6662 10.6602 24.7919 10.1003C24.9431 9.42733 24.9212 8.72656 24.7293 8.06402C24.5373 7.40152 24.181 6.79786 23.6935 6.31004C23.2059 5.82219 22.6026 5.46468 21.9402 5.27257C21.2778 5.08051 20.5775 5.06002 19.9046 5.21131C19.3448 5.33722 18.7652 5.09825 18.4561 4.61467C18.0863 4.03627 17.5777 3.55937 16.9757 3.2296C16.3735 2.89977 15.6972 2.72751 15.0107 2.72751C14.3244 2.72756 13.6489 2.89997 13.047 3.2296C12.4448 3.55941 11.935 4.0361 11.5652 4.61467C11.2563 5.098 10.6776 5.33681 10.118 5.21131C9.44629 5.0607 8.7477 5.08237 8.08645 5.27391C7.42502 5.46553 6.82185 5.8208 6.33443 6.30738C5.84718 6.7939 5.49022 7.39626 5.29733 8.05736C5.10458 8.71836 5.08161 9.41747 5.23076 10.0897C5.35533 10.651 5.11468 11.2299 4.629 11.5373C4.04634 11.9062 3.56643 12.4167 3.23378 13.021C2.90113 13.6254 2.72657 14.3047 2.72655 14.9947C2.72655 15.6847 2.90111 16.3639 3.23378 16.9684C3.56642 17.5726 4.04633 18.0831 4.629 18.452C5.11465 18.7595 5.35527 19.3384 5.23076 19.8997C5.08153 20.5721 5.10439 21.2721 5.29733 21.9333C5.49023 22.5942 5.84732 23.1955 6.33443 23.682C6.82185 24.1685 7.42502 24.5251 8.08645 24.7168C8.74754 24.9082 9.44645 24.9299 10.118 24.7794L10.3284 24.7487C10.8193 24.7167 11.2965 24.9529 11.5665 25.3773C11.9359 25.9582 12.4464 26.4364 13.0496 26.7677C13.6526 27.0989 14.3294 27.2724 15.0173 27.2725C15.7054 27.2725 16.3831 27.099 16.9863 26.7677C17.5894 26.4365 18.0988 25.958 18.4681 25.3773C18.7759 24.8933 19.354 24.6538 19.9139 24.778C20.5861 24.9273 21.2858 24.9045 21.9468 24.7114C22.6077 24.5184 23.2099 24.1615 23.6962 23.674C24.1823 23.1865 24.5378 22.584 24.7293 21.9227C24.9208 21.2611 24.9425 20.5611 24.7919 19.889C24.6664 19.3292 24.9038 18.7504 25.387 18.4414C25.9654 18.0714 26.4418 17.5615 26.7715 16.9591C27.1011 16.3568 27.2735 15.6812 27.2735 14.9947ZM30 14.9947C30 16.1393 29.7121 17.2656 29.1626 18.2696C28.7599 19.0053 28.2248 19.6564 27.589 20.1953C27.6612 21.0291 27.5821 21.8716 27.348 22.6805C27.0287 23.7832 26.436 24.7884 25.6253 25.6011C24.8148 26.4134 23.8124 27.0081 22.711 27.3298C21.9029 27.5657 21.0604 27.6466 20.2268 27.5761C19.6878 28.2155 19.0351 28.7533 18.2977 29.1583C17.2924 29.7104 16.1641 30 15.0173 30C13.8706 29.9999 12.7421 29.7104 11.7369 29.1583C11 28.7535 10.3479 28.2163 9.80918 27.5775C8.97656 27.6493 8.13532 27.5704 7.32759 27.3364C6.2253 27.0171 5.22168 26.4239 4.40934 25.6131C3.59708 24.8022 3.00155 23.7997 2.67995 22.6978C2.44423 21.8899 2.36211 21.0474 2.43232 20.214C1.79116 19.675 1.25182 19.0213 0.845389 18.2829C0.291089 17.2756 0 16.1445 0 14.9947C2.23573e-05 13.8448 0.291037 12.7138 0.845389 11.7065C1.25199 10.9677 1.79082 10.3131 2.43232 9.77404C2.36237 8.94131 2.44449 8.10011 2.67995 7.29291C3.00152 6.19081 3.59696 5.18724 4.40934 4.37628C5.22166 3.56547 6.22536 2.97227 7.32759 2.65293C8.1361 2.41872 8.97843 2.33834 9.81184 2.41055C10.3504 1.77488 11.0018 1.2404 11.7369 0.837699C12.7405 0.288022 13.8665 4.40864e-05 15.0107 0C16.1548 0 17.2808 0.288055 18.2844 0.837699C19.0195 1.24036 19.6709 1.77494 20.2095 2.41055C21.0447 2.33772 21.8888 2.418 22.699 2.65293C23.8031 2.97306 24.8085 3.56722 25.6213 4.38027C26.434 5.19331 27.0279 6.19923 27.348 7.30356C27.5828 8.11401 27.6617 8.95861 27.589 9.79402C28.2248 10.3329 28.7598 10.984 29.1626 11.7198C29.7121 12.7237 30 13.8501 30 14.9947Z" fill="#4A403A"/>
<path d="M13.6475 20.4498V14.9948C13.6475 14.2416 14.2578 13.631 15.0107 13.631C15.7636 13.631 16.374 14.2416 16.374 14.9948V20.4498C16.374 21.203 15.7636 21.8136 15.0107 21.8136C14.2578 21.8136 13.6475 21.203 13.6475 20.4498Z" fill="#4A403A"/>
<path d="M15.024 8.17603C15.777 8.17603 16.3873 8.7866 16.3873 9.53978C16.3873 10.293 15.777 10.9035 15.024 10.9035H15.0107C14.2578 10.9035 13.6475 10.293 13.6475 9.53978C13.6475 8.7866 14.2578 8.17603 15.0107 8.17603H15.024Z" fill="#4A403A"/>
</svg>
