<svg width="33" height="34" viewBox="0 0 33 34" fill="none" xmlns="http://www.w3.org/2000/svg">
<g clip-path="url(#clip0_239_287)">
<path d="M19.267 31.875V19.4081H13.0331V31.875C13.0331 32.7356 12.3357 33.4331 11.475 33.4331C10.6144 33.4331 9.91699 32.7356 9.91699 31.875V19.4081C9.91707 18.5816 10.2448 17.7886 10.8292 17.2042C11.4137 16.6198 12.2066 16.292 13.0331 16.2919H19.267C20.0935 16.292 20.8864 16.6198 21.4708 17.2042C22.0553 17.7886 22.383 18.5816 22.3831 19.4081V31.875C22.3831 32.7356 21.6857 33.4331 20.825 33.4331C19.9644 33.4331 19.267 32.7356 19.267 31.875Z" fill="#D9D9D9"/>
<path d="M28.6169 14.7329C28.6169 14.5062 28.567 14.2819 28.4716 14.0763C28.3762 13.8708 28.2371 13.6888 28.0641 13.5425L28.0558 13.5351L17.156 4.19253L17.0473 4.10869C16.7855 3.92431 16.4723 3.82398 16.15 3.82398C15.7817 3.82398 15.4252 3.95481 15.1439 4.19253L4.24414 13.5351L4.23584 13.5425C4.06283 13.6888 3.92368 13.8708 3.82827 14.0763C3.73287 14.2819 3.68297 14.5062 3.68301 14.7329V28.7587C3.6831 29.1718 3.84745 29.5681 4.13955 29.8602C4.4318 30.1525 4.8286 30.3167 5.24189 30.3167H27.058C27.4713 30.3167 27.8681 30.1525 28.1604 29.8602C28.4524 29.5681 28.6168 29.1718 28.6169 28.7587V14.7329ZM31.733 28.7587C31.7329 29.9984 31.2408 31.1874 30.3642 32.0641C29.4875 32.9408 28.2979 33.4337 27.058 33.4337H5.24189C4.00201 33.4337 2.81243 32.9408 1.93569 32.0641C1.05911 31.1874 0.56699 29.9984 0.566895 28.7587V14.7337C0.566734 14.0536 0.714792 13.3816 1.00103 12.7647C1.28725 12.1479 1.70439 11.6008 2.22373 11.1619L13.1243 1.81934L13.1326 1.81187C13.9764 1.09887 15.0453 0.707863 16.15 0.707863C17.1858 0.707863 18.1903 1.05163 19.0071 1.68237L19.1673 1.81187L19.1756 1.81934L30.0753 11.1619C30.5947 11.6008 31.0126 12.1479 31.2989 12.7647C31.5851 13.3816 31.7332 14.0536 31.733 14.7337V28.7587Z" fill="#D9D9D9"/>
</g>
<defs>
<clipPath id="clip0_239_287">
<rect width="32.3" height="34" fill="white"/>
</clipPath>
</defs>
</svg>
