<svg width="39" height="39" viewBox="0 0 39 39" fill="none" xmlns="http://www.w3.org/2000/svg">
<g clip-path="url(#clip0_110_825)">
<path d="M24.1292 19.5008L38.6143 5.01567C39.1286 4.50128 39.1286 3.66888 38.6143 3.15465L35.846 0.385137C35.5994 0.138734 35.2648 0 34.9156 0C34.5663 0 34.2317 0.138734 33.9852 0.385137L19.5 14.8714L5.0149 0.385137C4.76835 0.138734 4.43376 0 4.08445 0C3.73523 0 3.40056 0.138734 3.15409 0.385137L0.385768 3.15465C-0.128589 3.66888 -0.128589 4.50128 0.385768 5.01567L14.8709 19.5009L0.387207 33.9843C-0.126897 34.4987 -0.126897 35.3311 0.387207 35.8453L3.1557 38.6149C3.40209 38.8613 3.73675 39 4.08606 39C4.43537 39 4.76995 38.8613 5.01659 38.6149L19.4999 24.1303L33.9834 38.6149C34.2299 38.8613 34.5645 39 34.9138 39C35.2632 39 35.5978 38.8613 35.8442 38.6149L38.6127 35.8453C39.1268 35.3311 39.1268 34.4987 38.6127 33.9843L24.1292 19.5008Z" fill="#8C484E"/>
</g>
<defs>
<clipPath id="clip0_110_825">
<rect width="39" height="39" fill="white"/>
</clipPath>
</defs>
</svg>
