<svg width="30" height="49" viewBox="0 0 30 49" fill="none" xmlns="http://www.w3.org/2000/svg">
<g clip-path="url(#clip0_67_122)">
<path d="M29.4385 48.9365H7.51465V6.6875L21.4355 0.842773L29.4385 6.6875V48.9365Z" fill="#F5F1E9"/>
<path d="M21.4307 48.9365H7.51465V6.6875L21.4307 0.842773V48.9365Z" fill="#A1988E"/>
<path d="M15.5713 48.9644H0.239258V19.4067L9.95606 15.2876L15.5713 19.4067V48.9644Z" fill="#F5F1E9"/>
<path d="M9.94141 48.9644H0.239258V19.4012L9.95606 15.2876L9.94141 48.9644Z" fill="#A1988E"/>
<path d="M7.11914 16.9631L0.625 19.7185V27.4725C1.63086 25.8137 1.98242 23.3533 2.08984 22.5518C2.3584 20.5757 3.82324 21.1045 5.97168 19.8242C7.49023 18.9225 8.0957 17.6144 8.2373 16.4899L7.90039 16.6347L7.11914 16.9631ZM7.90527 15.6828L8.53027 15.4212C9.08203 14.3858 9.30664 12.9942 11.4453 12.1481C13.7891 11.2186 12.2021 8.48545 13.0811 6.66524C13.96 4.84502 16.2695 6.11973 18.2227 4.11582C18.8916 3.43115 19.1943 2.77988 19.3018 2.21768L7.90527 7.00479V15.6828Z" fill="#F5F1E9"/>
</g>
<defs>
<clipPath id="clip0_67_122">
<rect width="30" height="49" fill="white"/>
</clipPath>
</defs>
</svg>
