<svg width="36" height="36" viewBox="0 0 36 36" fill="none" xmlns="http://www.w3.org/2000/svg">
<path d="M3.879 26.121C3.31635 26.6835 3.00017 27.4464 3 28.242V31.5C3 31.8978 3.15804 32.2794 3.43934 32.5607C3.72064 32.842 4.10218 33 4.5 33H9C9.39782 33 9.77936 32.842 10.0607 32.5607C10.342 32.2794 10.5 31.8978 10.5 31.5V30C10.5 29.6022 10.658 29.2206 10.9393 28.9393C11.2206 28.658 11.6022 28.5 12 28.5H13.5C13.8978 28.5 14.2794 28.342 14.5607 28.0607C14.842 27.7794 15 27.3978 15 27V25.5C15 25.1022 15.158 24.7206 15.4393 24.4393C15.7206 24.158 16.1022 24 16.5 24H16.758C17.5536 23.9998 18.3165 23.6836 18.879 23.121L20.1 21.9C22.1848 22.6262 24.4543 22.6234 26.5372 21.8921C28.6202 21.1608 30.3933 19.7443 31.5665 17.8742C32.7398 16.0041 33.2436 13.7913 32.9957 11.5976C32.7477 9.40395 31.7627 7.35937 30.2016 5.79835C28.6406 4.23733 26.596 3.25227 24.4024 3.00433C22.2087 2.75639 19.9959 3.26024 18.1258 4.43346C16.2557 5.60668 14.8392 7.37981 14.1079 9.46278C13.3766 11.5457 13.3738 13.8152 14.1 15.9L3.879 26.121Z" stroke="#D9D9D9" stroke-width="3" stroke-linecap="round" stroke-linejoin="round"/>
<path d="M24.75 12C25.1642 12 25.5 11.6642 25.5 11.25C25.5 10.8358 25.1642 10.5 24.75 10.5C24.3358 10.5 24 10.8358 24 11.25C24 11.6642 24.3358 12 24.75 12Z" fill="#D9D9D9" stroke="#D9D9D9" stroke-width="3" stroke-linecap="round" stroke-linejoin="round"/>
</svg>
