<svg width="30" height="30" viewBox="0 0 30 30" fill="none" xmlns="http://www.w3.org/2000/svg">
<g clip-path="url(#clip0_110_726)">
<path d="M27.5096 7.92537C28.2305 7.20459 28.6356 6.22692 28.6358 5.20745C28.6359 4.18797 28.231 3.21021 27.5102 2.48924C26.7895 1.76827 25.8118 1.36317 24.7923 1.36304C23.7728 1.36291 22.7951 1.76777 22.0741 2.48856L3.87501 20.6917C3.5584 21.0074 3.32426 21.3961 3.19319 21.8236L1.39183 27.7581C1.35659 27.876 1.35392 28.0013 1.38413 28.1206C1.41433 28.2399 1.47626 28.3489 1.56337 28.4358C1.65047 28.5228 1.75949 28.5846 1.87886 28.6146C1.99823 28.6446 2.1235 28.6417 2.24137 28.6063L8.17728 26.8063C8.60433 26.6764 8.99297 26.4437 9.3091 26.1286L27.5096 7.92537Z" stroke="#FDFBF6" stroke-width="2.72727" stroke-linecap="round" stroke-linejoin="round"/>
<path d="M19.0908 5.45459L24.5454 10.9091" stroke="#FDFBF6" stroke-width="2.72727" stroke-linecap="round" stroke-linejoin="round"/>
</g>
<defs>
<clipPath id="clip0_110_726">
<rect width="30" height="30" fill="white"/>
</clipPath>
</defs>
</svg>
